<?xml version="1.0" encoding="utf-8"?>
<svg version="1.1" xmlns:xlink="http://www.w3.org/1999/xlink" width="30px" height="50px" xmlns="http://www.w3.org/2000/svg">
  <g transform="matrix(1 0 0 1 -1473 -57 )">
    <path d="M 23.9332096474954 21.5959821428571  C 21.4656771799629 24.0699404761905  18.4879406307978 25.3069196428571  15 25.3069196428571  C 11.5120593692022 25.3069196428571  8.53432282003711 24.0699404761905  6.06679035250464 21.5959821428571  C 3.59925788497217 19.1220238095238  2.36549165120594 16.1458333333333  2.36549165120594 12.6674107142857  C 2.36549165120594 9.1703869047619  3.59925788497217 6.18489583333333  6.06679035250464 3.7109375  C 8.53432282003711 1.23697916666667  11.5120593692022 0  15 0  C 18.4879406307978 0  21.4656771799629 1.23697916666667  23.9332096474954 3.7109375  C 26.4007421150278 6.18489583333333  27.6345083487941 9.1703869047619  27.6345083487941 12.6674107142857  C 27.6345083487941 16.1458333333333  26.4007421150278 19.1220238095238  23.9332096474954 21.5959821428571  Z M 19.3831168831169 8.24497767857143  C 18.1679035250464 7.02659970238095  16.7068645640074 6.41741071428572  15 6.41741071428572  C 13.2931354359926 6.41741071428572  11.8320964749536 7.02659970238095  10.6168831168831 8.24497767857143  C 9.40166975881262 9.4633556547619  8.79406307977737 10.9375  8.79406307977737 12.6674107142857  C 8.79406307977737 14.3787202380952  9.40166975881262 15.8435639880952  10.6168831168831 17.0619419642857  C 11.8320964749536 18.2803199404762  13.2931354359926 18.8895089285714  15 18.8895089285714  C 16.7068645640074 18.8895089285714  18.1679035250464 18.2803199404762  19.3831168831169 17.0619419642857  C 20.5983302411874 15.8435639880952  21.2059369202226 14.3787202380952  21.2059369202226 12.6674107142857  C 21.2059369202226 10.9375  20.5983302411874 9.4633556547619  19.3831168831169 8.24497767857143  Z M 28.7755102040816 25.8649553571429  C 29.1094619666048 26.1439732142857  29.3692022263451 26.469494047619  29.5547309833024 26.8415178571429  C 29.7959183673469 27.34375  29.9350649350649 27.8041294642857  29.9721706864564 28.22265625  C 30.0092764378479 28.6411830357143  29.9675324675325 29.0178571428571  29.8469387755102 29.3526785714286  C 29.7263450834879 29.6875  29.4805194805195 30.0455729166667  29.1094619666048 30.4268973214286  C 28.7384044526902 30.8082217261905  28.3441558441558 31.15234375  27.9267161410019 31.4592633928571  C 27.5092764378479 31.7661830357143  26.9387755102041 32.1521577380952  26.2152133580705 32.6171875  C 24.0816326530612 33.9750744047619  21.1595547309833 34.8493303571429  17.4489795918367 35.2399553571429  L 19.4805194805195 37.2488839285714  L 26.9109461966605 44.6986607142857  C 27.4675324675325 45.2752976190476  27.7458256029685 45.9635416666667  27.7458256029685 46.7633928571429  C 27.7458256029685 47.5632440476191  27.4675324675325 48.2421875  26.9109461966605 48.8002232142857  L 26.5769944341373 49.1629464285714  C 26.0018552875696 49.7209821428571  25.3153988868275 50  24.5176252319109 50  C 23.7198515769944 50  23.0333951762523 49.7209821428571  22.4582560296846 49.1629464285714  C 21.2152133580705 47.8980654761905  18.7384044526902 45.4055059523809  15.0278293135436 41.6852678571429  L 7.5974025974026 49.1629464285714  C 7.02226345083488 49.7209821428571  6.33580705009276 50  5.53803339517625 50  C 4.74025974025974 50  4.06307977736549 49.7209821428571  3.50649350649351 49.1629464285714  L 3.17254174397032 48.8002232142857  C 2.5974025974026 48.2421875  2.30983302411874 47.5632440476191  2.30983302411874 46.7633928571429  C 2.30983302411874 45.9635416666667  2.5974025974026 45.2752976190476  3.17254174397032 44.6986607142857  L 10.6029684601113 37.2488839285714  L 12.6066790352505 35.2399553571429  C 8.8404452690167 34.8493303571429  5.89981447124304 33.9750744047619  3.7847866419295 32.6171875  C 3.06122448979592 32.1521577380952  2.49072356215213 31.7661830357143  2.07328385899814 31.4592633928571  C 1.65584415584416 31.15234375  1.26159554730983 30.8082217261905  0.890538033395176 30.4268973214286  C 0.51948051948052 30.0455729166667  0.27365491651206 29.6875  0.153061224489796 29.3526785714286  C 0.0324675324675326 29.0178571428571  -0.00927643784786629 28.6411830357143  0.0278293135435993 28.22265625  C 0.0649350649350652 27.8041294642857  0.204081632653061 27.34375  0.445269016697588 26.8415178571429  C 0.630797773654917 26.469494047619  0.890538033395176 26.1439732142857  1.22448979591837 25.8649553571429  C 1.55844155844156 25.5859375  1.94805194805195 25.3813244047619  2.39332096474954 25.2511160714286  C 2.83858998144712 25.1209077380952  3.35807050092764 25.1395089285714  3.95176252319109 25.3069196428571  C 4.54545454545455 25.4743303571429  5.14842300556586 25.7998511904762  5.76066790352505 26.2834821428571  C 5.85343228200371 26.3578869047619  5.99257884972171 26.460193452381  6.17810760667904 26.5904017857143  C 6.36363636363636 26.7206101190476  6.76252319109462 26.948474702381  7.3747680890538 27.2739955357143  C 7.98701298701299 27.5995163690476  8.62708719851577 27.8831845238095  9.29499072356215 28.125  C 9.96289424860854 28.3668154761905  10.8163265306122 28.5900297619048  11.8552875695733 28.7946428571429  C 12.8942486085343 28.999255952381  13.9424860853432 29.1015625  15 29.1015625  C 16.6883116883117 29.1015625  18.3024118738404 28.8643973214286  19.8423005565863 28.3900669642857  C 21.3821892393321 27.9157366071429  22.4953617810761 27.446056547619  23.1818181818182 26.9810267857143  L 24.239332096475 26.2834821428571  C 24.8515769944341 25.7998511904762  25.4545454545455 25.4743303571429  26.0482374768089 25.3069196428571  C 26.6419294990724 25.1395089285714  27.1614100185529 25.1209077380952  27.6066790352505 25.2511160714286  C 28.0519480519481 25.3813244047619  28.4415584415584 25.5859375  28.7755102040816 25.8649553571429  Z " fill-rule="nonzero" fill="#000000" stroke="none" transform="matrix(1 0 0 1 1473 57 )" />
  </g>
</svg>